<?xml version="1.0" encoding="UTF-8"?>
<!-- Generator: visioncortex VTracer 0.6.4 -->
<svg version="1.1" xmlns="http://www.w3.org/2000/svg" width="653" height="382">
<path d="M0 0 C0.82 0.11 1.63 0.22 2.48 0.33 C7.38 1.1 11.28 2.47 15.65 4.84 C17.65 5.89 19.63 6.54 21.81 7.12 C26.21 8.51 29.63 10.69 33.38 13.34 C35.45 14.85 35.45 14.85 38.12 16.31 C40.96 18.12 43.02 20.34 45.38 22.75 C47.4 24.52 49.45 26.27 51.51 28 C53.42 29.79 54.93 31.56 56.38 33.75 C56.38 34.41 56.38 35.07 56.38 35.75 C56.97 35.96 57.57 36.16 58.19 36.38 C61.21 38.28 62.02 40.5 63.38 43.75 C63.38 44.41 63.38 45.07 63.38 45.75 C64.03 45.75 64.69 45.75 65.38 45.75 C66.37 48.72 66.37 48.72 67.38 51.75 C52.86 51.75 38.34 51.75 23.38 51.75 C23.38 80.46 23.38 109.17 23.38 138.75 C29.64 138.75 35.91 138.75 42.38 138.75 C42.38 137.76 42.38 136.77 42.38 135.75 C37.1 135.75 31.81 135.75 26.38 135.75 C26.38 122.88 26.38 110.01 26.38 96.75 C30.66 96.75 34.96 96.75 39.38 96.75 C39.38 95.76 39.38 94.77 39.38 93.75 C38.52 93.76 37.67 93.77 36.79 93.79 C35.13 93.8 35.13 93.8 33.44 93.81 C32.34 93.82 31.23 93.84 30.1 93.85 C27.38 93.75 27.38 93.75 26.38 92.75 C26.27 90.02 26.24 87.32 26.24 84.59 C26.24 83.78 26.24 82.96 26.24 82.12 C26.24 80.38 26.24 78.65 26.24 76.92 C26.25 74.26 26.24 71.6 26.24 68.94 C26.24 67.26 26.24 65.58 26.24 63.91 C26.24 63.11 26.24 62.3 26.24 61.48 C26.26 55.86 26.26 55.86 27.38 54.75 C30.48 54.66 33.56 54.63 36.66 54.65 C37.59 54.65 38.52 54.66 39.48 54.66 C42.47 54.66 45.45 54.67 48.44 54.69 C50.46 54.69 52.48 54.7 54.49 54.7 C59.45 54.71 64.41 54.73 69.38 54.75 C80.8 76.82 82.58 102.71 75.2 126.54 C74.02 129.66 72.74 132.7 71.38 135.75 C71.06 136.54 70.74 137.34 70.41 138.16 C67.11 146.21 62.6 153.66 56.38 159.75 C55.96 160.51 55.55 161.28 55.12 162.06 C53.01 165.31 50.51 167.44 47.55 169.92 C46.14 171.11 44.75 172.33 43.39 173.58 C38.74 177.86 33.96 180.84 28.38 183.75 C27.57 184.27 26.77 184.78 25.94 185.31 C21.93 187.56 17.65 189.1 13.38 190.75 C12.53 191.11 11.69 191.47 10.82 191.84 C8.5 192.7 6.65 193.07 4.19 193.25 C1 193.54 -1.96 194.05 -5.06 194.81 C-24.39 198.71 -47.09 194.88 -64.52 185.81 C-66.63 184.7 -66.63 184.7 -68.94 183.86 C-71.85 182.46 -73.56 181.26 -75.62 178.75 C-76.93 172.95 -76.67 167.24 -76.5 161.32 C-76.49 159.6 -76.47 157.88 -76.47 156.17 C-76.43 151.66 -76.34 147.15 -76.24 142.64 C-76.15 138.04 -76.11 133.43 -76.06 128.83 C-75.97 119.8 -75.81 110.78 -75.62 101.75 C-73.31 101.75 -71 101.75 -68.62 101.75 C-66.25 107.89 -64.31 114.06 -62.52 120.39 C-61.48 124.01 -60.35 127.53 -58.97 131.03 C-57.62 134.75 -57.62 134.75 -57.62 138.75 C-56.97 138.42 -56.31 138.09 -55.62 137.75 C-57.81 129.68 -60.05 121.62 -62.31 113.56 C-62.63 112.42 -62.95 111.28 -63.28 110.1 C-64.06 107.32 -64.84 104.53 -65.62 101.75 C-64.84 101.32 -64.06 100.88 -63.25 100.44 C-60.25 98.51 -58.94 96.92 -58.01 93.46 C-57.23 88 -57.4 82.5 -57.38 77 C-57.35 75.76 -57.33 74.53 -57.31 73.25 C-57.28 66.45 -57.32 59.88 -60.62 53.75 C-66.32 50.9 -73.27 52.12 -79.62 51.75 C-79.62 92.01 -79.62 132.27 -79.62 173.75 C-84.53 171.79 -86.11 170.44 -89.62 166.75 C-90.47 166.11 -91.32 165.47 -92.19 164.81 C-95.02 162.42 -96.65 159.88 -98.62 156.75 C-99.28 155.95 -99.94 155.14 -100.62 154.31 C-102.98 151.29 -104.82 148.12 -106.62 144.75 C-107.02 144.05 -107.41 143.36 -107.81 142.64 C-120.06 119.84 -122.1 92.27 -114.68 67.6 C-113.73 64.94 -112.7 62.35 -111.62 59.75 C-111.29 58.85 -110.96 57.96 -110.62 57.04 C-108.83 52.24 -107 48.66 -103.62 44.75 C-102.75 43.15 -102.75 43.15 -101.86 41.51 C-99.66 37.61 -96.95 34.48 -93.88 31.25 C-93.34 30.68 -92.8 30.11 -92.25 29.53 C-81.75 18.5 -70.14 9.86 -55.66 4.82 C-52.53 3.77 -52.53 3.77 -49.23 2.19 C-45.42 0.67 -41.86 -0.02 -37.81 -0.44 C-37.08 -0.52 -36.34 -0.59 -35.59 -0.67 C-23.6 -1.84 -11.93 -1.67 0 0 Z M-40.38 50.81 C-42.98 51.61 -42.98 51.61 -44.24 54.85 C-45.76 58.64 -45.99 61.98 -45.98 66.07 C-45.98 66.77 -45.99 67.47 -45.99 68.18 C-45.99 70.46 -45.97 72.73 -45.95 75.01 C-45.95 76.6 -45.95 78.19 -45.95 79.78 C-45.94 83.11 -45.93 86.44 -45.91 89.77 C-45.88 94.02 -45.87 98.28 -45.86 102.54 C-45.86 105.82 -45.85 109.11 -45.84 112.39 C-45.83 113.96 -45.83 115.53 -45.82 117.1 C-45.82 119.3 -45.8 121.49 -45.79 123.68 C-45.78 124.93 -45.77 126.18 -45.77 127.46 C-45.64 130.4 -45.49 132.95 -44.62 135.75 C-39.51 139.61 -35.96 140.47 -29.62 139.75 C-26.7 138.79 -26.7 138.79 -24.62 136.75 C-22.75 132.27 -22.37 128.4 -22.35 123.57 C-22.35 122.88 -22.34 122.19 -22.33 121.47 C-22.32 119.2 -22.32 116.93 -22.32 114.66 C-22.32 113.07 -22.32 111.48 -22.31 109.89 C-22.3 106.57 -22.3 103.24 -22.31 99.92 C-22.32 95.67 -22.3 91.42 -22.27 87.18 C-22.26 83.9 -22.26 80.62 -22.26 77.34 C-22.26 75.77 -22.26 74.21 -22.25 72.64 C-22.23 70.45 -22.24 68.25 -22.25 66.06 C-22.25 64.19 -22.25 64.19 -22.25 62.28 C-22.69 58.11 -23.69 55.46 -25.62 51.75 C-27.89 50.65 -27.89 50.65 -30.62 50.75 C-32.36 50.69 -32.36 50.69 -34.12 50.62 C-36.21 50.7 -38.29 50.77 -40.38 50.81 Z M-8.62 52.75 C-11.7 59.12 -12.09 64.68 -12 71.69 C-12.01 72.63 -12.02 73.56 -12.04 74.53 C-12.01 80.58 -11.45 86.3 -8.62 91.75 C-5.57 94.74 -2.21 96.47 1.62 98.31 C4.64 99.89 5.67 100.84 7.38 103.75 C7.75 106.7 7.75 106.7 7.74 110.09 C7.74 111.32 7.74 112.55 7.74 113.81 C7.72 115.09 7.7 116.37 7.69 117.69 C7.69 119.6 7.69 119.6 7.7 121.55 C7.64 131.92 7.64 131.92 5.38 136.75 C3.92 136.61 2.46 136.46 1 136.31 C-0.22 136.19 -0.22 136.19 -1.46 136.07 C-3.62 135.75 -3.62 135.75 -5.62 134.75 C-6.49 132.16 -6.8 130.41 -6.94 127.74 C-7 126.6 -7 126.6 -7.07 125.44 C-7.11 124.66 -7.15 123.87 -7.19 123.06 C-7.23 122.27 -7.27 121.47 -7.32 120.65 C-7.42 118.68 -7.53 116.72 -7.62 114.75 C-8.94 114.75 -10.26 114.75 -11.62 114.75 C-12.35 126.86 -12.35 126.86 -7.62 137.75 C-3.8 140.12 -0.02 140.44 4.38 139.75 C8.59 137.74 8.59 137.74 11.02 133.99 C11.83 128.84 11.56 123.57 11.56 118.38 C11.58 116.55 11.58 116.55 11.6 114.68 C11.6 113.5 11.6 112.32 11.61 111.1 C11.61 109.49 11.61 109.49 11.62 107.85 C11.23 102.87 10.3 99.68 6.75 96.12 C3.77 93.83 0.57 92.29 -2.89 90.84 C-5.18 89.4 -5.64 88.27 -6.62 85.75 C-7.08 81.09 -7 76.43 -7 71.75 C-7.02 70.47 -7.05 69.18 -7.07 67.86 C-7.08 66.01 -7.08 66.01 -7.09 64.12 C-7.09 63 -7.1 61.87 -7.11 60.71 C-6.52 57.12 -5.47 55.95 -2.62 53.75 C0.16 53.24 2.52 53.56 5.38 53.75 C9.13 60.26 8.49 67.48 8.38 74.75 C9.37 74.75 10.36 74.75 11.38 74.75 C11.43 72.02 11.47 69.29 11.5 66.56 C11.52 65.79 11.53 65.02 11.55 64.23 C11.59 59.98 11.5 56.57 9.38 52.75 C3.97 49.51 -3.18 49.78 -8.62 52.75 Z " fill="#050505" transform="translate(346.625,94.25)"/>
<path d="M0 0 C3.42 2.74 5.28 4.7 6 9 C6.1 11.17 6.15 13.34 6.16 15.51 C6.17 16.15 6.17 16.8 6.18 17.46 C6.19 19.59 6.2 21.71 6.2 23.84 C6.21 25.32 6.21 26.8 6.22 28.28 C6.23 31.39 6.24 34.49 6.24 37.6 C6.25 41.57 6.27 45.54 6.3 49.51 C6.32 52.57 6.32 55.63 6.32 58.69 C6.33 60.15 6.33 61.62 6.35 63.08 C6.36 65.13 6.36 67.18 6.36 69.23 C6.36 70.4 6.36 71.56 6.37 72.76 C5.84 77.38 4.28 80.72 1 84 C-2.05 84.55 -4.95 84.57 -8 84 C-10 81.62 -10 81.62 -11 79 C-11.33 78.34 -11.66 77.68 -12 77 C-12.11 74.81 -12.15 72.62 -12.16 70.43 C-12.17 69.75 -12.17 69.08 -12.18 68.38 C-12.19 66.14 -12.2 63.91 -12.2 61.67 C-12.21 60.11 -12.21 58.56 -12.22 57 C-12.23 53.74 -12.24 50.48 -12.24 47.22 C-12.25 43.04 -12.27 38.86 -12.3 34.69 C-12.32 31.47 -12.32 28.26 -12.32 25.05 C-12.33 23.51 -12.33 21.97 -12.35 20.43 C-12.36 18.27 -12.36 16.12 -12.36 13.96 C-12.36 12.74 -12.36 11.51 -12.37 10.25 C-11.96 6.68 -11.16 4.84 -9 2 C-5.48 -0.35 -4.14 -0.58 0 0 Z " fill="#0B0B0B" transform="translate(316,147)"/>
<path d="M0 0 C0.62 0.5 1.24 0.99 1.88 1.5 C3.84 3.19 3.84 3.19 6 3 C6 3.66 6 4.32 6 5 C6.99 4.67 7.98 4.34 9 4 C9.33 27.43 9.66 50.86 10 75 C9.01 74.01 8.02 73.02 7 72 C5.51 71.5 5.51 71.5 4 71 C3.67 71.99 3.34 72.98 3 74 C2.34 74 1.68 74 1 74 C0.67 75.65 0.34 77.3 0 79 C-1.32 79 -2.64 79 -4 79 C-4.66 78.01 -5.32 77.02 -6 76 C-8.06 75.28 -8.06 75.28 -10 75 C-8 73 -8 73 -6 72 C-7.65 71.34 -9.3 70.68 -11 70 C-10.67 68.35 -10.34 66.7 -10 65 C-8.51 64.5 -8.51 64.5 -7 64 C-6.32 65.58 -5.66 67.16 -5 68.75 C-4.63 69.63 -4.26 70.51 -3.88 71.42 C-3 74 -3 74 -3 78 C-2.01 77.5 -2.01 77.5 -1 77 C-3.19 68.93 -5.43 60.87 -7.69 52.81 C-8.01 51.67 -8.33 50.53 -8.66 49.35 C-9.44 46.57 -10.22 43.78 -11 41 C-10.22 40.57 -9.43 40.13 -8.62 39.69 C-5.63 37.76 -4.32 36.18 -3.39 32.73 C-2.94 29.6 -2.78 26.54 -2.68 23.39 C-2.64 22.14 -2.6 20.89 -2.56 19.61 C-2.52 18.31 -2.48 17.02 -2.44 15.69 C-2.39 14.37 -2.35 13.06 -2.31 11.71 C-2.2 8.47 -2.1 5.24 -2 2 C-1.34 2 -0.68 2 0 2 C0 1.34 0 0.68 0 0 Z " fill="#040404" transform="translate(292,155)"/>
<path d="M0 0 C4.37 5.54 3.52 12.08 3.5 18.77 C3.5 20.99 3.54 23.21 3.59 25.43 C3.59 26.85 3.59 28.27 3.59 29.69 C3.6 30.97 3.61 32.25 3.62 33.57 C2.85 37.85 1.32 39.3 -2 42 C-4.99 43.49 -7.71 43.12 -11 43 C-11.66 42.67 -12.32 42.34 -13 42 C-13 27.81 -13 13.62 -13 -1 C-7.3 -1.95 -5.14 -2.14 0 0 Z " fill="#090909" transform="translate(284,150)"/>
<path d="M0 0 C0.66 0.33 1.32 0.66 2 1 C1.67 1.66 1.34 2.32 1 3 C0.01 2.67 -0.98 2.34 -2 2 C-2.41 2.5 -2.82 2.99 -3.25 3.5 C-5 5 -5 5 -9 5 C-10.13 8.4 -10.13 10.99 -10.13 14.57 C-10.13 15.23 -10.13 15.89 -10.13 16.57 C-10.14 18.76 -10.14 20.95 -10.13 23.13 C-10.13 24.65 -10.13 26.17 -10.14 27.69 C-10.14 30.87 -10.14 34.04 -10.13 37.22 C-10.12 41.31 -10.13 45.39 -10.13 49.48 C-10.14 52.61 -10.14 55.74 -10.13 58.87 C-10.13 60.38 -10.13 61.89 -10.14 63.39 C-10.14 65.49 -10.13 67.59 -10.13 69.69 C-10.13 70.89 -10.13 72.09 -10.13 73.32 C-10.31 75.92 -10.31 75.92 -9 77 C-8.96 78.67 -8.96 80.33 -9 82 C-11.89 77.67 -12.13 75.63 -12.16 70.43 C-12.17 69.75 -12.17 69.08 -12.18 68.38 C-12.19 66.14 -12.2 63.91 -12.2 61.67 C-12.21 60.11 -12.21 58.56 -12.22 57 C-12.23 53.74 -12.24 50.48 -12.24 47.22 C-12.25 43.04 -12.27 38.86 -12.3 34.69 C-12.32 31.47 -12.32 28.26 -12.32 25.05 C-12.33 23.51 -12.33 21.97 -12.35 20.43 C-12.36 18.27 -12.36 16.12 -12.36 13.96 C-12.36 12.74 -12.36 11.51 -12.37 10.25 C-11.96 6.68 -11.16 4.84 -9 2 C-5.54 -0.3 -4.05 -0.26 0 0 Z " fill="#686767" transform="translate(316,147)"/>
<path d="M0 0 C2.31 0 4.62 0 7 0 C9.05 5.09 10.43 9.55 11 15 C10.34 14.34 9.68 13.68 9 13 C9 11.68 9 10.36 9 9 C8.34 9 7.68 9 7 9 C6.67 6.69 6.34 4.38 6 2 C4.35 1.67 2.7 1.34 1 1 C1.33 26.08 1.66 51.16 2 77 C1.34 77 0.68 77 0 77 C0 51.59 0 26.18 0 0 Z " fill="#3C3B3C" transform="translate(271,196)"/>
<path d="M0 0 C0.33 0 0.66 0 1 0 C1.33 23.43 1.66 46.86 2 71 C0.33 69.33 -1.33 67.67 -3 66 C-2.34 66 -1.68 66 -1 66 C-0.67 44.22 -0.34 22.44 0 0 Z " fill="#0B0B0B" transform="translate(300,159)"/>
<path d="M0 0 C-0.99 0.66 -1.98 1.32 -3 2 C-3.33 1.67 -3.66 1.34 -4 1 C-4 1.33 -4 1.66 -4 2 C-6.31 2 -8.62 2 -11 2 C-10.99 2.88 -10.98 3.75 -10.96 4.66 C-10.88 17.12 -11.41 29.55 -12 42 C-12.33 42 -12.66 42 -13 42 C-13 27.81 -13 13.62 -13 -1 C-7.3 -1.95 -5.22 -1.77 0 0 Z " fill="#363535" transform="translate(284,150)"/>
<path d="M0 0 C-0.66 0 -1.32 0 -2 0 C-2.66 1.32 -3.32 2.64 -4 4 C-4.66 4 -5.32 4 -6 4 C-6 4.66 -6 5.32 -6 6 C-7.65 5.67 -9.3 5.34 -11 5 C-10.67 5.99 -10.34 6.98 -10 8 C-10.66 8 -11.32 8 -12 8 C-12.33 8.66 -12.66 9.32 -13 10 C-15.31 10 -17.62 10 -20 10 C-15.59 4.83 -7.09 -2.84 0 0 Z " fill="#282828" transform="translate(289,102)"/>
<path d="M0 0 C2.04 2.04 2.64 3.23 3.62 5.88 C3.89 6.55 4.15 7.23 4.41 7.93 C5 10 5 10 5 14 C5.66 13.67 6.32 13.34 7 13 C6.67 10.69 6.34 8.38 6 6 C6.33 6.66 6.66 7.32 7 8 C7.99 8.33 8.98 8.66 10 9 C9.34 10.98 8.68 12.96 8 15 C6.68 15 5.36 15 4 15 C3.34 14.01 2.68 13.02 2 12 C-0.06 11.28 -0.06 11.28 -2 11 C0 9 0 9 2 8 C-0.48 7.01 -0.48 7.01 -3 6 C-2.62 3.56 -2.62 3.56 -2 1 C-1.34 0.67 -0.68 0.34 0 0 Z " fill="#161616" transform="translate(284,219)"/>
<path d="M0 0 C0.82 0.5 1.65 0.99 2.5 1.5 C7.58 3.68 11.66 3.78 17 2 C17.66 1.67 18.32 1.34 19 1 C19.62 2.81 19.62 2.81 20 5 C19.01 6.49 19.01 6.49 18 8 C17.67 7.67 17.34 7.34 17 7 C16.01 7.5 16.01 7.5 15 8 C15 7.01 15 6.02 15 5 C13.68 5 12.36 5 11 5 C11 5.66 11 6.32 11 7 C9.35 7.66 7.7 8.32 6 9 C5.91 7.82 5.91 7.82 5.81 6.62 C5.54 5.76 5.28 4.89 5 4 C2.52 2.63 2.52 2.63 0 2 C0 1.34 0 0.68 0 0 Z " fill="#262626" transform="translate(303,230)"/>
<path d="M0 0 C3.4 1.41 5.12 2.83 7 6 C7.34 9.02 7.34 9.02 7.29 12.52 C7.28 13.77 7.27 15.02 7.26 16.3 C7.24 17.61 7.21 18.91 7.19 20.25 C7.17 21.57 7.16 22.88 7.15 24.24 C7.11 27.5 7.06 30.75 7 34 C6.67 34 6.34 34 6 34 C5.67 25.42 5.34 16.84 5 8 C3.68 7.34 2.36 6.68 1 6 C0.01 6.33 -0.98 6.66 -2 7 C-2 6.34 -2 5.68 -2 5 C-1.34 5 -0.68 5 0 5 C0 3.35 0 1.7 0 0 Z " fill="#4F4E4F" transform="translate(348,192)"/>
<path d="M0 0 C0.66 0.33 1.32 0.66 2 1 C6.84 2.61 11.16 2.61 16 1 C16.66 0.67 17.32 0.34 18 0 C18.33 1.32 18.66 2.64 19 4 C16.62 5.56 16.62 5.56 14 7 C13.34 6.67 12.68 6.34 12 6 C12.33 5.34 12.66 4.68 13 4 C12.08 4.11 12.08 4.11 11.14 4.22 C10.33 4.31 9.52 4.4 8.69 4.5 C7.89 4.59 7.09 4.69 6.26 4.78 C2.46 5.15 1.3 5.2 -2 3 C-1 1 -1 1 0 0 Z " fill="#363636" transform="translate(338,231)"/>
<path d="M0 0 C0.33 0 0.66 0 1 0 C1.33 2.31 1.66 4.62 2 7 C1.01 7.5 1.01 7.5 0 8 C-0.31 8.99 -0.62 9.98 -0.94 11 C-1.29 11.99 -1.64 12.98 -2 14 C-2.99 14.33 -3.98 14.66 -5 15 C-5.33 16.32 -5.66 17.64 -6 19 C-6.66 16.36 -7.32 13.72 -8 11 C-7.22 10.57 -6.43 10.13 -5.62 9.69 C-2.43 7.63 -1.24 6.02 -0.38 2.31 C-0.19 1.17 -0.19 1.17 0 0 Z " fill="#2B2B2B" transform="translate(289,185)"/>
<path d="M0 0 C2.38 1.94 2.38 1.94 4 4 C4 4.33 4 4.66 4 5 C-0.62 5 -5.24 5 -10 5 C-7.34 -0.32 -5.77 -0.58 0 0 Z " fill="#403F3F" transform="translate(350,147)"/>
<path d="M0 0 C1.53 4.08 0.63 7.79 0 12 C-0.33 11.34 -0.66 10.68 -1 10 C-1.66 10 -2.32 10 -3 10 C-3 10.99 -3 11.98 -3 13 C-2.34 13.33 -1.68 13.66 -1 14 C-1.33 14.99 -1.66 15.98 -2 17 C-2.99 17 -3.98 17 -5 17 C-5 19.31 -5 21.62 -5 24 C-5.33 24 -5.66 24 -6 24 C-6.66 15.41 -4 7.57 0 0 Z " fill="#474747" transform="translate(236,152)"/>
<path d="M0 0 C0.33 0.99 0.66 1.98 1 3 C3.02 3.73 3.02 3.73 5 4 C4.34 5.32 3.68 6.64 3 8 C3 7.01 3 6.02 3 5 C2.34 5 1.68 5 1 5 C0.92 5.62 0.84 6.24 0.75 6.88 C0 9 0 9 -1.94 10.12 C-2.62 10.41 -3.3 10.7 -4 11 C-4.66 11.66 -5.32 12.32 -6 13 C-5.58 7.29 -3.42 4.39 0 0 Z " fill="#181818" transform="translate(243,139)"/>
<path d="M0 0 C0.99 0.33 1.98 0.66 3 1 C2.34 2.98 1.68 4.96 1 7 C-0.32 7 -1.64 7 -3 7 C-2.34 7.33 -1.68 7.66 -1 8 C-1.33 8.66 -1.66 9.32 -2 10 C-3.32 9.67 -4.64 9.34 -6 9 C-6.33 10.65 -6.66 12.3 -7 14 C-7.99 14 -8.98 14 -10 14 C-8.44 10.48 -6.31 7.73 -3.88 4.75 C-3.15 3.86 -2.43 2.97 -1.68 2.05 C-0.85 1.03 -0.85 1.03 0 0 Z " fill="#282828" transform="translate(254,124)"/>
<path d="M0 0 C0.33 0 0.66 0 1 0 C1 1.98 1 3.96 1 6 C1.66 6 2.32 6 3 6 C3.1 11.13 3.04 15.95 2 21 C1.34 21 0.68 21 0 21 C0 14.07 0 7.14 0 0 Z " fill="#5F5F5F" transform="translate(358,202)"/>
<path d="M0 0 C0.99 0.66 1.98 1.32 3 2 C-2 10.63 -2 10.63 -6 13 C-6.33 11.35 -6.66 9.7 -7 8 C-6.38 7.59 -5.76 7.18 -5.12 6.75 C-2.92 4.93 -2.12 3.59 -1 1 C-0.67 0.67 -0.34 0.34 0 0 Z " fill="#343434" transform="translate(408,241)"/>
<path d="M0 0 C0.99 0.33 1.98 0.66 3 1 C2.67 1.66 2.34 2.32 2 3 C2.33 3.33 2.66 3.66 3 4 C3.36 5.33 3.7 6.66 4 8 C1.67 8 -0.67 8 -3 8 C-3.33 6.35 -3.66 4.7 -4 3 C-2.19 1.44 -2.19 1.44 0 0 Z " fill="#010101" transform="translate(297,151)"/>
<path d="M0 0 C-0.33 0.33 -0.66 0.66 -1 1 C0.65 1.33 2.3 1.66 4 2 C2 4 2 4 -1 5 C-1 6.98 -1 8.96 -1 11 C-1.33 11 -1.66 11 -2 11 C-2.19 10.37 -2.39 9.75 -2.59 9.1 C-2.85 8.28 -3.11 7.47 -3.38 6.62 C-3.63 5.81 -3.89 5 -4.15 4.16 C-4.9 1.84 -4.9 1.84 -7 0 C-3.87 -1.04 -3.01 -0.93 0 0 Z " fill="#373737" transform="translate(291,146)"/>
<path d="M0 0 C0.33 0 0.66 0 1 0 C1.33 7.26 1.66 14.52 2 22 C-0.5 19.5 -0.5 19.5 -3 17 C-2.34 17 -1.68 17 -1 17 C-1.01 16.44 -1.02 15.89 -1.04 15.31 C-1.1 10.1 -0.75 5.16 0 0 Z " fill="#080808" transform="translate(300,208)"/>
<path d="M0 0 C1.32 0.66 2.64 1.32 4 2 C3.34 2.66 2.68 3.32 2 4 C2 3.34 2 2.68 2 2 C1.34 2 0.68 2 0 2 C0.33 4.31 0.66 6.62 1 9 C1.99 9.33 2.98 9.66 4 10 C3.19 11.94 3.19 11.94 2 14 C1.01 14.33 0.02 14.66 -1 15 C-1.03 12.69 -1.05 10.38 -1.06 8.06 C-1.07 6.77 -1.09 5.49 -1.1 4.16 C-1 1 -1 1 0 0 Z " fill="#2F2F2F" transform="translate(291,168)"/>
<path d="M0 0 C3 2 3 2 4 4 C3.01 4.99 2.02 5.98 1 7 C0.01 6.67 -0.98 6.34 -2 6 C-2 7.32 -2 8.64 -2 10 C-1.34 10.33 -0.68 10.66 0 11 C-0.99 11 -1.98 11 -3 11 C-4.04 7.87 -3.93 7.01 -3 4 C-2.34 4 -1.68 4 -1 4 C-0.67 2.68 -0.34 1.36 0 0 Z " fill="#060606" transform="translate(296,225)"/>
<path d="M0 0 C1.98 0 3.96 0 6 0 C8.05 5.09 9.43 9.55 10 15 C9.34 14.34 8.68 13.68 8 13 C8 11.68 8 10.36 8 9 C7.34 9 6.68 9 6 9 C5.67 6.69 5.34 4.38 5 2 C3.35 1.67 1.7 1.34 0 1 C0 0.67 0 0.34 0 0 Z " fill="#424242" transform="translate(272,196)"/>
<path d="M0 0 C0.66 0.33 1.32 0.66 2 1 C1.67 1.66 1.34 2.32 1 3 C0.01 2.67 -0.98 2.34 -2 2 C-2.41 2.52 -2.82 3.03 -3.25 3.56 C-3.83 4.04 -4.4 4.51 -5 5 C-7.19 4.69 -7.19 4.69 -9 4 C-8.67 3.01 -8.34 2.02 -8 1 C-5.26 -0.37 -3.03 -0.13 0 0 Z " fill="#4B4A4B" transform="translate(316,147)"/>
<path d="M0 0 C0 0.66 0 1.32 0 2 C-0.66 2 -1.32 2 -2 2 C-2.33 2.66 -2.66 3.32 -3 4 C-3.66 3.67 -4.32 3.34 -5 3 C-5.33 4.32 -5.66 5.64 -6 7 C-8.87 6.43 -9.86 6.14 -12 4 C-10.57 3.33 -9.13 2.66 -7.69 2 C-6.89 1.63 -6.09 1.26 -5.26 0.88 C-3 0 -3 0 0 0 Z " fill="#242424" transform="translate(301,96)"/>
<path d="M0 0 C0.66 0.33 1.32 0.66 2 1 C0.02 1.99 0.02 1.99 -2 3 C-1.01 3.33 -0.02 3.66 1 4 C0.67 4.99 0.34 5.98 0 7 C-1.98 7 -3.96 7 -6 7 C-5.81 5.19 -5.81 5.19 -5 3 C-2.56 1.19 -2.56 1.19 0 0 Z " fill="#030303" transform="translate(359,169)"/>
<path d="M0 0 C0.33 0.99 0.66 1.98 1 3 C0.34 3 -0.32 3 -1 3 C-1.33 3.66 -1.66 4.32 -2 5 C-4.31 5 -6.62 5 -9 5 C-4.5 0 -4.5 0 0 0 Z " fill="#050505" transform="translate(278,107)"/>
<path d="M0 0 C2.12 0.94 2.12 0.94 4 2 C1.47 4.8 -0.2 6.46 -4 7 C-4 5.68 -4 4.36 -4 3 C-3.34 3 -2.68 3 -2 3 C-2 2.34 -2 1.68 -2 1 C-1.34 0.67 -0.68 0.34 0 0 Z " fill="#373737" transform="translate(384,267)"/>
<path d="M0 0 C0.74 0.78 1.49 1.57 2.25 2.38 C4.54 4.57 6.12 5.83 9 7 C4.29 6.52 0.33 6.03 -4 4 C-2.68 2.68 -1.36 1.36 0 0 Z " fill="#434343" transform="translate(296,280)"/>
<path d="M0 0 C1.32 0.33 2.64 0.66 4 1 C4 1.99 4 2.98 4 4 C5.32 4.66 6.64 5.32 8 6 C5.36 6.33 2.72 6.66 0 7 C0 4.69 0 2.38 0 0 Z " fill="#1E1E1E" transform="translate(347,281)"/>
<path d="M0 0 C1.98 0.99 3.96 1.98 6 3 C6 3.66 6 4.32 6 5 C7.65 5 9.3 5 11 5 C11 5.66 11 6.32 11 7 C9.35 7.66 7.7 8.32 6 9 C5.91 7.82 5.91 7.82 5.81 6.62 C5.54 5.76 5.28 4.89 5 4 C2.52 2.63 2.52 2.63 0 2 C0 1.34 0 0.68 0 0 Z " fill="#3E3E3E" transform="translate(303,230)"/>
<path d="M0 0 C0.66 0.33 1.32 0.66 2 1 C1.81 3.38 1.81 3.38 1 6 C-1.56 7.31 -1.56 7.31 -4 8 C-3.69 5.12 -3.69 5.12 -3 2 C-2.01 1.34 -1.02 0.68 0 0 Z " fill="#262626" transform="translate(326,223)"/>
<path d="M0 0 C1.53 4.08 0.63 7.79 0 12 C-0.33 11.34 -0.66 10.68 -1 10 C-1.66 10 -2.32 10 -3 10 C-2.49 6.28 -1.88 3.27 0 0 Z " fill="#444444" transform="translate(236,152)"/>
<path d="M0 0 C1.65 0 3.3 0 5 0 C5.33 1.32 5.66 2.64 6 4 C3.36 4 0.72 4 -2 4 C-1.34 2.68 -0.68 1.36 0 0 Z " fill="#060506" transform="translate(342,148)"/>
<path d="M0 0 C0.99 0.99 1.98 1.98 3 3 C2.67 3.66 2.34 4.32 2 5 C0.68 4.67 -0.64 4.34 -2 4 C-2.33 5.65 -2.66 7.3 -3 9 C-3.99 9 -4.98 9 -6 9 C-4.47 5.56 -2.4 2.88 0 0 Z " fill="#535353" transform="translate(250,129)"/>
<path d="M0 0 C1.94 0.31 1.94 0.31 4 1 C4.33 1.99 4.66 2.98 5 4 C5.66 4.33 6.32 4.66 7 5 C7 5.66 7 6.32 7 7 C3.62 5.81 1.35 4.72 -1 2 C-0.67 1.34 -0.34 0.68 0 0 Z " fill="#393939" transform="translate(277,273)"/>
<path d="M0 0 C0.66 0 1.32 0 2 0 C2.66 0.66 3.32 1.32 4 2 C4.99 2.33 5.98 2.66 7 3 C4.19 4.56 4.19 4.56 1 6 C0.01 5.67 -0.98 5.34 -2 5 C-1.34 3.35 -0.68 1.7 0 0 Z " fill="#454545" transform="translate(357,280)"/>
<path d="M0 0 C0.33 0.99 0.66 1.98 1 3 C-0.5 4.24 -1.99 5.47 -3.49 6.71 C-4.71 7.75 -5.87 8.87 -7 10 C-6.81 7.12 -6.81 7.12 -6 4 C-3.5 2.75 -3.5 2.75 -1 2 C-0.67 1.34 -0.34 0.68 0 0 Z " fill="#747474" transform="translate(401,254)"/>
<path d="M0 0 C0.33 0.66 0.66 1.32 1 2 C1.99 2.33 2.98 2.66 4 3 C3.34 4.98 2.68 6.96 2 9 C0.68 9 -0.64 9 -2 9 C-2 7.35 -2 5.7 -2 4 C-1.67 5.32 -1.34 6.64 -1 8 C-0.34 7.67 0.32 7.34 1 7 C0.67 4.69 0.34 2.38 0 0 Z " fill="#989898" transform="translate(290,225)"/>
<path d="M0 0 C1.65 0 3.3 0 5 0 C6.1 3.29 5.8 4.71 5 8 C2.28 5.65 1.19 3.38 0 0 Z " fill="#373737" transform="translate(242,241)"/>
<path d="M0 0 C2.48 0.99 2.48 0.99 5 2 C4.34 3.32 3.68 4.64 3 6 C1.35 5.01 -0.3 4.02 -2 3 C-1 1 -1 1 0 0 Z " fill="#2C2C2C" transform="translate(338,231)"/>
<path d="M0 0 C1.98 0.99 1.98 0.99 4 2 C3.67 3.65 3.34 5.3 3 7 C3.99 6.67 4.98 6.34 6 6 C6 6.66 6 7.32 6 8 C5.01 8.33 4.02 8.66 3 9 C0 3.38 0 3.38 0 0 Z " fill="#535353" transform="translate(233,221)"/>
<path d="M0 0 C2.97 1.65 5.94 3.3 9 5 C8.01 5.33 7.02 5.66 6 6 C5.67 6.66 5.34 7.32 5 8 C2.5 5.69 2.5 5.69 0 3 C0 2.01 0 1.02 0 0 Z " fill="#5D5D5D" transform="translate(339,186)"/>
<path d="M0 0 C2.75 0.81 2.75 0.81 5 2 C4.01 2.5 4.01 2.5 3 3 C2.67 3.99 2.34 4.98 2 6 C1.67 5.34 1.34 4.68 1 4 C-1.53 3.34 -1.53 3.34 -4 3 C-2.31 1.38 -2.31 1.38 0 0 Z " fill="#434343" transform="translate(320,143)"/>
<path d="M0 0 C5.44 1.48 5.44 1.48 11 3 C7 5 7 5 5 5 C4.67 4.34 4.34 3.68 4 3 C2.35 3 0.7 3 -1 3 C-0.67 2.01 -0.34 1.02 0 0 Z " fill="#585858" transform="translate(358,98)"/>
<path d="M0 0 C0.66 0.66 1.32 1.32 2 2 C1.62 4.62 1.62 4.62 1 7 C-0.65 7 -2.3 7 -4 7 C-3.34 5.68 -2.68 4.36 -2 3 C-1.34 3 -0.68 3 0 3 C0 2.01 0 1.02 0 0 Z " fill="#323232" transform="translate(286,224)"/>
<path d="M0 0 C0.33 0 0.66 0 1 0 C2.34 6.43 2.34 6.43 0.81 9 C-1 10 -1 10 -3.19 9.69 C-3.79 9.46 -4.38 9.23 -5 9 C-4.36 8.44 -3.72 7.89 -3.06 7.31 C-0.8 4.78 -0.37 3.32 0 0 Z " fill="#5B5B5B" transform="translate(289,185)"/>
<path d="M0 0 C2.9 2.4 3.5 4.31 4 8 C3.01 8.33 2.02 8.66 1 9 C0 2.25 0 2.25 0 0 Z " fill="#545454" transform="translate(416,151)"/>
<path d="M0 0 C0.66 0.33 1.32 0.66 2 1 C1.34 3.31 0.68 5.62 0 8 C-0.99 7.01 -1.98 6.02 -3 5 C-1.12 1.12 -1.12 1.12 0 0 Z " fill="#141414" transform="translate(302,145)"/>
<path d="M0 0 C1.32 0.33 2.64 0.66 4 1 C2.68 2.32 1.36 3.64 0 5 C-0.66 4.67 -1.32 4.34 -2 4 C-1.34 2.68 -0.68 1.36 0 0 Z " fill="#282828" transform="translate(282,187)"/>
<path d="M0 0 C-0.33 0.66 -0.66 1.32 -1 2 C-2.65 2 -4.3 2 -6 2 C-6 2.66 -6 3.32 -6 4 C-6.66 4 -7.32 4 -8 4 C-8.33 3.01 -8.66 2.02 -9 1 C-6.04 -0.48 -3.26 -0.06 0 0 Z " fill="#000000" transform="translate(351,235)"/>
<path d="M0 0 C1.49 0.99 1.49 0.99 3 2 C2.01 3.98 1.02 5.96 0 8 C-0.33 8 -0.66 8 -1 8 C-1.04 5.67 -1.04 3.33 -1 1 C-0.67 0.67 -0.34 0.34 0 0 Z " fill="#454545" transform="translate(408,241)"/>
<path d="M0 0 C0.62 1.81 0.62 1.81 1 4 C0.01 5.49 0.01 5.49 -1 7 C-1 5.68 -1 4.36 -1 3 C-2.32 2.67 -3.64 2.34 -5 2 C-2 0 -2 0 0 0 Z " fill="#3F3F3F" transform="translate(322,231)"/>
<path d="M0 0 C0.66 1.32 1.32 2.64 2 4 C0.68 4.33 -0.64 4.66 -2 5 C-2 5.66 -2 6.32 -2 7 C-2.66 7 -3.32 7 -4 7 C-2.8 4.51 -1.55 2.32 0 0 Z " fill="#606060" transform="translate(243,139)"/>
<path d="M0 0 C0.66 0 1.32 0 2 0 C1.38 1.88 1.38 1.88 0 4 C-3.12 5.25 -3.12 5.25 -6 6 C-4 4 -2 2 0 0 Z " fill="#646464" transform="translate(267,112)"/>
<path d="M0 0 C1.32 0.33 2.64 0.66 4 1 C3.67 2.65 3.34 4.3 3 6 C2.01 5.67 1.02 5.34 0 5 C0 3.35 0 1.7 0 0 Z " fill="#020202" transform="translate(299,98)"/>
<path d="M0 0 C0.66 0 1.32 0 2 0 C1.98 0.95 1.96 1.9 1.94 2.88 C1.77 5.91 1.77 5.91 3 8 C2.01 8 1.02 8 0 8 C-0.38 5.67 -0.71 3.34 -1 1 C-0.67 0.67 -0.34 0.34 0 0 Z " fill="#000000" transform="translate(307,221)"/>
<path d="M0 0 C0.62 1.81 0.62 1.81 1 4 C0.01 5.49 0.01 5.49 -1 7 C-1.33 6.01 -1.66 5.02 -2 4 C-2.66 3.34 -3.32 2.68 -4 2 C-2.68 1.34 -1.36 0.68 0 0 Z " fill="#333333" transform="translate(420,219)"/>
<path d="M0 0 C0.99 0 1.98 0 3 0 C3.33 1.32 3.66 2.64 4 4 C2.02 4.99 2.02 4.99 0 6 C0.33 4.68 0.66 3.36 1 2 C0.34 1.67 -0.32 1.34 -1 1 C-0.67 0.67 -0.34 0.34 0 0 Z " fill="#030303" transform="translate(356,185)"/>
<path d="M0 0 C4.88 1.75 4.88 1.75 6 4 C4.35 4 2.7 4 1 4 C0.67 2.68 0.34 1.36 0 0 Z " fill="#4C4C4C" transform="translate(369,102)"/>
<path d="M0 0 C1.5 1.19 1.5 1.19 3 3 C3.19 5.69 3.19 5.69 3 8 C1.33 6.33 -0.33 4.67 -2 3 C-1.34 3 -0.68 3 0 3 C0 2.01 0 1.02 0 0 Z " fill="#212121" transform="translate(299,222)"/>
<path d="M0 0 C1.32 0.33 2.64 0.66 4 1 C3.01 2.32 2.02 3.64 1 5 C1 4.34 1 3.68 1 3 C0.01 2.67 -0.98 2.34 -2 2 C-1.34 2 -0.68 2 0 2 C0 1.34 0 0.68 0 0 Z " fill="#252424" transform="translate(335,146)"/>
<path d="M0 0 C0.66 0.33 1.32 0.66 2 1 C0.68 2.32 -0.64 3.64 -2 5 C-2.99 4.67 -3.98 4.34 -5 4 C-3.35 2.68 -1.7 1.36 0 0 Z " fill="#5A5A5A" transform="translate(274,107)"/>
<path d="M0 0 C0.87 0.34 0.87 0.34 1.75 0.69 C1.09 0.69 0.43 0.69 -0.25 0.69 C-0.25 1.35 -0.25 2.01 -0.25 2.69 C-2.23 2.69 -4.21 2.69 -6.25 2.69 C-2.8 -0.39 -2.8 -0.39 0 0 Z " fill="#5F5F5F" transform="translate(287.25,101.3125)"/>
<path d="M0 0 C0 0.66 0 1.32 0 2 C-0.66 2 -1.32 2 -2 2 C-2.33 2.66 -2.66 3.32 -3 4 C-4.32 3.34 -5.64 2.68 -7 2 C-4.35 0.54 -3.11 0 0 0 Z " fill="#676767" transform="translate(301,96)"/>
<path d="M0 0 C0.33 0 0.66 0 1 0 C1 1.98 1 3.96 1 6 C0.01 6.5 0.01 6.5 -1 7 C-1.62 4.62 -1.62 4.62 -2 2 C-1.34 1.34 -0.68 0.68 0 0 Z " fill="#262626" transform="translate(403,247)"/>
<path d="M0 0 C1.12 1.75 1.12 1.75 2 4 C1.12 6.25 1.12 6.25 0 8 C-1.12 5.69 -1.12 5.69 -2 3 C-1.34 2.01 -0.68 1.02 0 0 Z " fill="#242424" transform="translate(415,227)"/>
<path d="M0 0 C0.99 0.33 1.98 0.66 3 1 C1.74 3.51 0.5 3.87 -2 5 C-1.12 1.12 -1.12 1.12 0 0 Z " fill="#000000" transform="translate(297,151)"/>
<path d="M0 0 C-0.99 0.5 -0.99 0.5 -2 1 C-2.99 2.49 -2.99 2.49 -4 4 C-4.99 2.68 -5.98 1.36 -7 0 C-3.87 -1.04 -3.01 -0.93 0 0 Z " fill="#2B2B2B" transform="translate(291,146)"/>
<path d="M0 0 C0.99 0 1.98 0 3 0 C1.25 4.88 1.25 4.88 -1 6 C-0.67 4.02 -0.34 2.04 0 0 Z " fill="#797979" transform="translate(412,236)"/>
<path d="M0 0 C0.66 0.99 1.32 1.98 2 3 C1.67 3.99 1.34 4.98 1 6 C0.34 6 -0.32 6 -1 6 C-1.04 4.33 -1.04 2.67 -1 1 C-0.67 0.67 -0.34 0.34 0 0 Z " fill="#010101" transform="translate(291,151)"/>
<path d="M0 0 C1.65 0 3.3 0 5 0 C4.01 0.33 3.02 0.66 2 1 C2 1.99 2 2.98 2 4 C1.01 3.67 0.02 3.34 -1 3 C-0.67 2.01 -0.34 1.02 0 0 Z " fill="#030303" transform="translate(238,150)"/>
<path d="M0 0 C0 1.67 0 3.33 0 5 C-0.99 5 -1.98 5 -3 5 C-2.62 3.06 -2.62 3.06 -2 1 C-1.34 0.67 -0.68 0.34 0 0 Z " fill="#000000" transform="translate(305,281)"/>
<path d="M0 0 C0.66 0.33 1.32 0.66 2 1 C1.34 2.32 0.68 3.64 0 5 C-0.66 3.68 -1.32 2.36 -2 1 C-1.34 0.67 -0.68 0.34 0 0 Z " fill="#030303" transform="translate(301,281)"/>
<path d="M0 0 C0.66 0.33 1.32 0.66 2 1 C2 1.99 2 2.98 2 4 C0.68 4 -0.64 4 -2 4 C-1.34 2.68 -0.68 1.36 0 0 Z " fill="#615F61" transform="translate(342,148)"/>
<path d="M0 0 C0.66 0 1.32 0 2 0 C2 2.31 2 4.62 2 7 C0.54 4.35 0 3.11 0 0 Z " fill="#6B6B6B" transform="translate(356,145)"/>
<path d="M0 0 C1.32 1.32 2.64 2.64 4 4 C2.68 4.33 1.36 4.66 0 5 C-0.33 4.01 -0.66 3.02 -1 2 C-0.67 1.34 -0.34 0.68 0 0 Z " fill="#4C4C4C" transform="translate(386,112)"/>
<path d="M0 0 C2.48 0.5 2.48 0.5 5 1 C3.68 1.99 2.36 2.98 1 4 C0.67 2.68 0.34 1.36 0 0 Z " fill="#545454" transform="translate(353,96)"/>
<path d="M0 0 C2.48 0.99 2.48 0.99 5 2 C3.68 2.33 2.36 2.66 1 3 C0.67 2.01 0.34 1.02 0 0 Z " fill="#030303" transform="translate(350,283)"/>
<path d="M0 0 C0.33 0.66 0.66 1.32 1 2 C1.99 2.33 2.98 2.66 4 3 C3.67 3.66 3.34 4.32 3 5 C2.34 5 1.68 5 1 5 C0.67 3.35 0.34 1.7 0 0 Z " fill="#535353" transform="translate(290,225)"/>
<path d="M0 0 C1.98 0.99 1.98 0.99 4 2 C3.34 2 2.68 2 2 2 C2 2.66 2 3.32 2 4 C1.34 4 0.68 4 0 4 C0 2.68 0 1.36 0 0 Z " fill="#040404" transform="translate(290,221)"/>
<path d="M0 0 C0.99 0.99 1.98 1.98 3 3 C2.34 3.99 1.68 4.98 1 6 C0.67 4.02 0.34 2.04 0 0 Z " fill="#676566" transform="translate(357,195)"/>
<path d="M0 0 C0.66 0.66 1.32 1.32 2 2 C1.67 2.99 1.34 3.98 1 5 C0.01 4.34 -0.98 3.68 -2 3 C-1 1 -1 1 0 0 Z " fill="#000000" transform="translate(238,159)"/>
<path d="M0 0 C0.66 0.33 1.32 0.66 2 1 C1.34 2.32 0.68 3.64 0 5 C-0.66 4.67 -1.32 4.34 -2 4 C-2 3.34 -2 2.68 -2 2 C-1.34 2 -0.68 2 0 2 C0 1.34 0 0.68 0 0 Z " fill="#040404" transform="translate(292,155)"/>
<path d="M0 0 C1.65 0.33 3.3 0.66 5 1 C1.25 3 1.25 3 -1 3 C-0.67 2.01 -0.34 1.02 0 0 Z " fill="#4B4B4B" transform="translate(358,98)"/>
<path d="M0 0 C0.66 0.99 1.32 1.98 2 3 C0.68 3.33 -0.64 3.66 -2 4 C-1.34 2.68 -0.68 1.36 0 0 Z " fill="#050505" transform="translate(405,243)"/>
<path d="M0 0 C0.33 0.66 0.66 1.32 1 2 C1.66 2.33 2.32 2.66 3 3 C2.01 3.33 1.02 3.66 0 4 C-0.66 3.01 -1.32 2.02 -2 1 C-1.34 0.67 -0.68 0.34 0 0 Z " fill="#020202" transform="translate(276,200)"/>
<path d="M0 0 C2.48 0.5 2.48 0.5 5 1 C4.01 1.33 3.02 1.66 2 2 C1.67 2.66 1.34 3.32 1 4 C0.67 2.68 0.34 1.36 0 0 Z " fill="#484848" transform="translate(343,190)"/>
<path d="M0 0 C2.48 0.5 2.48 0.5 5 1 C4.67 1.66 4.34 2.32 4 3 C3.34 3 2.68 3 2 3 C2 2.34 2 1.68 2 1 C1.34 0.67 0.68 0.34 0 0 Z " fill="#242424" transform="translate(348,95)"/>
<path d="M0 0 C1.32 0.33 2.64 0.66 4 1 C3.01 1.66 2.02 2.32 1 3 C0.67 2.01 0.34 1.02 0 0 Z " fill="#030303" transform="translate(387,226)"/>
<path d="M0 0 C0.66 0.99 1.32 1.98 2 3 C1.34 3.66 0.68 4.32 0 5 C0 4.34 0 3.68 0 3 C-0.66 2.67 -1.32 2.34 -2 2 C-1.34 2 -0.68 2 0 2 C0 1.34 0 0.68 0 0 Z " fill="#040404" transform="translate(238,219)"/>
<path d="M0 0 C0.66 0 1.32 0 2 0 C1.67 1.32 1.34 2.64 1 4 C0.34 3.01 -0.32 2.02 -1 1 C-0.67 0.67 -0.34 0.34 0 0 Z " fill="#2B2B2B" transform="translate(282,195)"/>
<path d="M0 0 C0.99 0.33 1.98 0.66 3 1 C2.34 2.32 1.68 3.64 1 5 C0.67 3.35 0.34 1.7 0 0 Z " fill="#050505" transform="translate(386,184)"/>
<path d="M0 0 C0.99 0.99 1.98 1.98 3 3 C2.01 3.33 1.02 3.66 0 4 C0 2.68 0 1.36 0 0 Z " fill="#494949" transform="translate(323,149)"/>
<path d="M0 0 C0.66 0.33 1.32 0.66 2 1 C1.67 1.99 1.34 2.98 1 4 C0.34 3.67 -0.32 3.34 -1 3 C-0.67 2.01 -0.34 1.02 0 0 Z " fill="#020202" transform="translate(296,98)"/>
<path d="M0 0 C0.66 0 1.32 0 2 0 C1.34 1.32 0.68 2.64 0 4 C-0.33 3.01 -0.66 2.02 -1 1 C-0.67 0.67 -0.34 0.34 0 0 Z " fill="#080808" transform="translate(254,254)"/>
<path d="M0 0 C0.66 0.33 1.32 0.66 2 1 C1.67 1.99 1.34 2.98 1 4 C0.34 3.01 -0.32 2.02 -1 1 C-0.67 0.67 -0.34 0.34 0 0 Z " fill="#424242" transform="translate(302,145)"/>
<path d="M0 0 C0.99 0.33 1.98 0.66 3 1 C2.34 1.66 1.68 2.32 1 3 C0.67 2.01 0.34 1.02 0 0 Z " fill="#040404" transform="translate(258,256)"/>
<path d="M0 0 C0.99 0.33 1.98 0.66 3 1 C2.34 1.66 1.68 2.32 1 3 C0.67 2.01 0.34 1.02 0 0 Z " fill="#040404" transform="translate(326,154)"/>
<path d="M0 0 C0.99 0.33 1.98 0.66 3 1 C2.34 1.66 1.68 2.32 1 3 C0.67 2.01 0.34 1.02 0 0 Z " fill="#030303" transform="translate(392,125)"/>
<path d="M0 0 C0.99 0.33 1.98 0.66 3 1 C2.34 1.66 1.68 2.32 1 3 C0.67 2.01 0.34 1.02 0 0 Z " fill="#040404" transform="translate(258,124)"/>
<path d="" fill="#FFFFFF" transform="translate(0,0)"/>
<path d="" fill="#FFFFFF" transform="translate(0,0)"/>
<path d="" fill="#FFFFFF" transform="translate(0,0)"/>
<path d="" fill="#FFFFFF" transform="translate(0,0)"/>
<path d="" fill="#FFFFFF" transform="translate(0,0)"/>
<path d="" fill="#FFFFFF" transform="translate(0,0)"/>
<path d="" fill="#FFFFFF" transform="translate(0,0)"/>
<path d="" fill="#FFFFFF" transform="translate(0,0)"/>
<path d="" fill="#FFFFFF" transform="translate(0,0)"/>
<path d="" fill="#FFFFFF" transform="translate(0,0)"/>
<path d="" fill="#FFFFFF" transform="translate(0,0)"/>
<path d="" fill="#FFFFFF" transform="translate(0,0)"/>
<path d="" fill="#FFFFFF" transform="translate(0,0)"/>
<path d="" fill="#FFFFFF" transform="translate(0,0)"/>
<path d="" fill="#FFFFFF" transform="translate(0,0)"/>
<path d="" fill="#FFFFFF" transform="translate(0,0)"/>
<path d="" fill="#FFFFFF" transform="translate(0,0)"/>
<path d="" fill="#FFFFFF" transform="translate(0,0)"/>
<path d="" fill="#FFFFFF" transform="translate(0,0)"/>
<path d="" fill="#FFFFFF" transform="translate(0,0)"/>
<path d="" fill="#FFFFFF" transform="translate(0,0)"/>
<path d="" fill="#FFFFFF" transform="translate(0,0)"/>
<path d="" fill="#FFFFFF" transform="translate(0,0)"/>
<path d="" fill="#FFFFFF" transform="translate(0,0)"/>
<path d="" fill="#FFFFFF" transform="translate(0,0)"/>
<path d="" fill="#FFFFFF" transform="translate(0,0)"/>
<path d="" fill="#FFFFFF" transform="translate(0,0)"/>
<path d="" fill="#FFFFFF" transform="translate(0,0)"/>
<path d="" fill="#FFFFFF" transform="translate(0,0)"/>
<path d="" fill="#FFFFFF" transform="translate(0,0)"/>
<path d="" fill="#FFFFFF" transform="translate(0,0)"/>
<path d="" fill="#FFFFFF" transform="translate(0,0)"/>
<path d="" fill="#FFFFFF" transform="translate(0,0)"/>
<path d="" fill="#FFFFFF" transform="translate(0,0)"/>
<path d="" fill="#FFFFFF" transform="translate(0,0)"/>
<path d="" fill="#FFFFFF" transform="translate(0,0)"/>
<path d="" fill="#FFFFFF" transform="translate(0,0)"/>
<path d="" fill="#FFFFFF" transform="translate(0,0)"/>
<path d="" fill="#FFFFFF" transform="translate(0,0)"/>
<path d="" fill="#FFFFFF" transform="translate(0,0)"/>
<path d="" fill="#FFFFFF" transform="translate(0,0)"/>
<path d="" fill="#FFFFFF" transform="translate(0,0)"/>
<path d="" fill="#FFFFFF" transform="translate(0,0)"/>
<path d="" fill="#FFFFFF" transform="translate(0,0)"/>
<path d="" fill="#FFFFFF" transform="translate(0,0)"/>
<path d="" fill="#FFFFFF" transform="translate(0,0)"/>
<path d="" fill="#FFFFFF" transform="translate(0,0)"/>
<path d="" fill="#FFFFFF" transform="translate(0,0)"/>
<path d="" fill="#FFFFFF" transform="translate(0,0)"/>
<path d="" fill="#FFFFFF" transform="translate(0,0)"/>
<path d="" fill="#FFFFFF" transform="translate(0,0)"/>
<path d="" fill="#FFFFFF" transform="translate(0,0)"/>
<path d="" fill="#FFFFFF" transform="translate(0,0)"/>
<path d="" fill="#FFFFFF" transform="translate(0,0)"/>
<path d="" fill="#FFFFFF" transform="translate(0,0)"/>
<path d="" fill="#FFFFFF" transform="translate(0,0)"/>
<path d="" fill="#FFFFFF" transform="translate(0,0)"/>
<path d="" fill="#FFFFFF" transform="translate(0,0)"/>
<path d="" fill="#FFFFFF" transform="translate(0,0)"/>
<path d="" fill="#FFFFFF" transform="translate(0,0)"/>
<path d="" fill="#FFFFFF" transform="translate(0,0)"/>
<path d="" fill="#FFFFFF" transform="translate(0,0)"/>
<path d="" fill="#FFFFFF" transform="translate(0,0)"/>
<path d="" fill="#FFFFFF" transform="translate(0,0)"/>
<path d="" fill="#FFFFFF" transform="translate(0,0)"/>
<path d="" fill="#FFFFFF" transform="translate(0,0)"/>
<path d="" fill="#FFFFFF" transform="translate(0,0)"/>
<path d="" fill="#FFFFFF" transform="translate(0,0)"/>
<path d="" fill="#FFFFFF" transform="translate(0,0)"/>
<path d="" fill="#FFFFFF" transform="translate(0,0)"/>
<path d="" fill="#FFFFFF" transform="translate(0,0)"/>
<path d="" fill="#FFFFFF" transform="translate(0,0)"/>
<path d="" fill="#FFFFFF" transform="translate(0,0)"/>
<path d="" fill="#FFFFFF" transform="translate(0,0)"/>
<path d="" fill="#FFFFFF" transform="translate(0,0)"/>
</svg>
